# xmcd
#
# Track frame offsets:
# 150
# 15411
# 36662
# 52695
# 71250
# 83793
# 99989
# 119469
# 140772
# 156885
# 176009
# 188813
# 204011
#
# Disc length: 2922 seconds
#
#
# Revision: 0
# Processed by: cddbd v1.5.1PL0 Copyright (c) Steve Scherf et al.
# Submitted via: FreeRIP 2.93 
#
DISCID=a40b680d
DTITLE=Vdelli - Remastered vol. 1
DYEAR=2004
DGENRE=Blues Rock
TTITLE0=Noel Burnt The Kitchen Down
TTITLE1=Addicted To Everything
TTITLE2=Boogie A
TTITLE3=Man In The Mirror
TTITLE4=Skitzoid
TTITLE5=Manhole
TTITLE6=Could Be Good
TTITLE7=Newtown
TTITLE8=Aint Bringing´ Me Down
TTITLE9=Public Requests
TTITLE10=Hot Muffins
TTITLE11=Boogie B
TTITLE12=Waitin´ For The Call
EXTD=
EXTT0=
EXTT1=
EXTT2=
EXTT3=
EXTT4=
EXTT5=
EXTT6=
EXTT7=
EXTT8=
EXTT9=
EXTT10=
EXTT11=
EXTT12=
PLAYORDER=
